<svg enable-background="new 0 0 264 88" height="88" viewBox="0 0 264 88" width="264" xmlns="http://www.w3.org/2000/svg"><g fill="#fff"><path d="m111.7 20.5c0 .4-.3.8-.8.8h-2.3v2.3c0 .4-.3.8-.8.8-.4 0-.8-.3-.8-.8v-2.3h-2.3c-.4 0-.8-.3-.8-.8s.3-.8.8-.8h2.3v-2.3c0-.4.3-.8.8-.8.4 0 .8.3.8.8v2.3h2.3c.4 0 .8.3.8.8zm7.4 11.3c-.3.3-.8.3-1.1 0l-4.8-4.8c-3.6 3-8.9 2.5-11.9-1.1s-2.5-8.9 1.1-11.9 8.9-2.5 11.9 1.1c2.6 3.1 2.6 7.7 0 10.8l4.8 4.8c.3.3.3.8 0 1.1zm-11.3-4.4c3.8 0 6.9-3.1 6.9-6.9s-3.1-6.9-6.9-6.9-6.9 3.1-6.9 6.9 3.1 6.9 6.9 6.9z"/><path d="m155.7 20.5c0 .4-.3.8-.8.8h-6.1c-.4 0-.8-.3-.8-.8s.3-.8.8-.8h6.1c.4 0 .8.3.8.8zm7.4 11.3c-.3.3-.8.3-1.1 0l-4.8-4.8c-3.6 3-8.9 2.5-11.9-1.1s-2.5-8.9 1.1-11.9 8.9-2.5 11.9 1.1c2.6 3.1 2.6 7.7 0 10.8l4.8 4.8c.3.3.3.8 0 1.1zm-11.3-4.4c3.8 0 6.9-3.1 6.9-6.9s-3.1-6.9-6.9-6.9-6.9 3.1-6.9 6.9 3.1 6.9 6.9 6.9z"/><path d="m70.3 68.9c-1 0-1.9.4-2.6 1.1l-4.1-2.6c.3-.8.3-1.8 0-2.6l4.1-2.6c1.4 1.4 3.6 1.4 5 .1 1.4-1.4 1.4-3.6.1-5s-3.6-1.4-5-.1c-1 1-1.4 2.5-.8 3.8l-4.1 2.6c-1.4-1.4-3.6-1.4-5-.1-1.4 1.4-1.4 3.6-.1 5s3.6 1.4 5 .1c0 0 0 0 .1-.1l4.1 2.6c-.7 1.8.2 3.9 2 4.6s3.9-.2 4.6-2-.2-3.9-2-4.6c-.4-.2-.8-.2-1.3-.2zm0-11.5c1.2 0 2.1 1 2.1 2.1 0 1.2-1 2.1-2.1 2.1s-2.1-1-2.1-2.1.9-2.1 2.1-2.1zm-10 10.7c-1.2 0-2.1-1-2.1-2.1 0-1.2 1-2.1 2.1-2.1 1.2 0 2.1 1 2.1 2.1.1 1.2-.9 2.1-2.1 2.1zm10 6.5c-1.2 0-2.1-1-2.1-2.1 0-1.2 1-2.1 2.1-2.1s2.1 1 2.1 2.1c.1 1.1-.9 2.1-2.1 2.1z"/></g><path d="m30.7 73.5c.4.4.4.9 0 1.3s-.9.4-1.3 0l-7.4-7.5-7.5 7.5c-.4.4-.9.4-1.3 0s-.4-.9 0-1.3l7.5-7.5-7.5-7.5c-.4-.4-.4-.9 0-1.3s.9-.4 1.3 0l7.5 7.5 7.5-7.5c.4-.4.9-.4 1.3 0s.4.9 0 1.3l-7.5 7.5z"/><g fill="#fff"><path d="m163.3 66.1c0 .5-.4.8-.8.8h-16.3l6.1 6.1c.3.3.3.9 0 1.2s-.9.3-1.2 0l-7.5-7.5c-.3-.3-.3-.9 0-1.2l7.5-7.5c.3-.3.9-.3 1.2 0s.3.9 0 1.2l-6.1 6.1h16.3c.5-.1.8.3.8.8z"/><path d="m119.1 66.6-7.5 7.5c-.3.3-.9.3-1.2 0s-.3-.9 0-1.2l6.1-6.1h-16.3c-.5 0-.8-.4-.8-.8 0-.5.4-.8.8-.8h16.3l-6.1-6.1c-.3-.3-.3-.9 0-1.2s.9-.3 1.2 0l7.5 7.5c.3.4.3.9 0 1.2z"/><path d="m68.5 18.4v-5.5c0-.5.4-.9.9-.9s.9.4.9.9v4.5h4.5c.5 0 .9.4.9.9s-.4.9-.9.9h-5.5c-.4.1-.8-.3-.8-.8zm-6.3 6.4h-5.5c-.5 0-.9.4-.9.9s.4.9.9.9h4.5v4.5c0 .5.4.9.9.9s.9-.4.9-.9v-5.5c.1-.4-.3-.8-.8-.8zm12.7 0h-5.5c-.5 0-.9.4-.9.9v5.5c0 .5.4.9.9.9s.9-.4.9-.9v-4.5h4.5c.5 0 .9-.4.9-.9.1-.6-.3-1-.8-1zm-12.7-12.8c-.5 0-.9.4-.9.9v4.5h-4.5c-.5 0-.9.4-.9.9s.4.9.9.9h5.5c.5 0 .9-.4.9-.9v-5.5c-.1-.4-.5-.8-1-.8z"/><path d="m32 13v4.5c0 .5-.4.9-.9.9s-.9-.4-.9-.9v-3.6h-3.6c-.5 0-.9-.4-.9-.9s.4-.9.9-.9h4.5c.5 0 .9.4.9.9zm-14.5 17.2h-3.6v-3.6c0-.5-.4-.9-.9-.9s-1 .4-1 .9v4.5c0 .5.4.9.9.9h4.5c.5 0 .9-.4.9-.9s-.3-.9-.8-.9zm13.6-4.5c-.5 0-.9.4-.9.9v3.6h-3.6c-.5 0-.9.4-.9.9s.4.9.9.9h4.5c.5 0 .9-.4.9-.9v-4.5c0-.5-.4-.9-.9-.9zm-13.6-13.6h-4.5c-.5 0-.9.4-.9.9v4.5c0 .5.4.9.9.9s.9-.4.9-.9v-3.6h3.6c.5 0 .9-.4.9-.9s-.4-.9-.9-.9z"/></g></svg>